<?xml version="1.0" encoding="UTF-8" standalone="no"?>
<!DOCTYPE svg PUBLIC "-//W3C//DTD SVG 1.1//EN" "http://www.w3.org/Graphics/SVG/1.1/DTD/svg11.dtd">
<svg width="100%" height="100%" viewBox="0 0 500 500" version="1.1" xmlns="http://www.w3.org/2000/svg" xmlns:xlink="http://www.w3.org/1999/xlink" xml:space="preserve" xmlns:serif="http://www.serif.com/" style="fill-rule:evenodd;clip-rule:evenodd;stroke-linecap:round;stroke-linejoin:round;stroke-miterlimit:1.5;">
    <g transform="matrix(0.267692,0,0,0.267692,-114.352,-197.699)">
        <g transform="matrix(1,0,0,1,0.29485,0.80029)">
            <g>
                <g>
                    <g transform="matrix(1,0,0,-1,0,2853.38)">
                        <path d="M943.127,1410.95L943.127,1435.43C943.127,1442.19 937.642,1447.67 930.886,1447.67L876.095,1447.67C869.339,1447.67 863.854,1442.19 863.854,1435.43L863.854,1410.95C863.854,1404.19 869.339,1398.71 876.095,1398.71L930.886,1398.71C937.642,1398.71 943.127,1404.19 943.127,1410.95Z" style="fill:white;"/>
                    </g>
                    <g transform="matrix(1,0,0,-1,0,2853.38)">
                        <path d="M1059.07,1547.93L1011.33,1547.93C991.701,1547.93 975.769,1532 975.769,1512.37L975.769,1341C975.769,1321.38 991.701,1305.45 1011.33,1305.45L1056.23,1305.45C1041.92,1341.94 1034.06,1381.65 1034.06,1423.19C1034.06,1467.4 1042.96,1509.54 1059.07,1547.93Z" style="fill:white;"/>
                    </g>
                </g>
                <g transform="matrix(-1,0,0,1,2706.64,2.27374e-13)">
                    <g transform="matrix(1,0,0,-1,0,2853.38)">
                        <path d="M943.127,1410.95L943.127,1435.43C943.127,1442.19 937.642,1447.67 930.886,1447.67L876.095,1447.67C869.339,1447.67 863.854,1442.19 863.854,1435.43L863.854,1410.95C863.854,1404.19 869.339,1398.71 876.095,1398.71L930.886,1398.71C937.642,1398.71 943.127,1404.19 943.127,1410.95Z" style="fill:white;"/>
                    </g>
                    <g transform="matrix(1,0,0,-1,0,2853.38)">
                        <path d="M1059.07,1547.93L1011.33,1547.93C991.701,1547.93 975.769,1532 975.769,1512.37L975.769,1341C975.769,1321.38 991.701,1305.45 1011.33,1305.45L1056.23,1305.45C1041.92,1341.94 1034.06,1381.65 1034.06,1423.19C1034.06,1467.4 1042.96,1509.54 1059.07,1547.93Z" style="fill:white;"/>
                    </g>
                </g>
                <g>
                    <g transform="matrix(1,0,0,-1,-2.33156,2853.38)">
                        <g transform="matrix(1.76471,0,0,1.76471,-902.665,-1048.21)">
                            <circle cx="1222.33" cy="1400.46" r="29.727" style="fill:white;"/>
                        </g>
                        <g transform="matrix(1.76471,0,0,1.76471,-699.819,-1048.21)">
                            <circle cx="1222.33" cy="1400.46" r="29.727" style="fill:white;"/>
                        </g>
                    </g>
                    <g transform="matrix(0.906122,0,0,-0.906122,127.062,2719.44)">
                        <circle cx="1353.48" cy="1426.69" r="285.616" style="fill:none;stroke:white;stroke-width:53.7px;"/>
                    </g>
                </g>
            </g>
            <g transform="matrix(1,0,0,1,4.66885,0)">
                <g transform="matrix(12.0357,0,0,12.0357,1598.44,1631.67)">
                    <path d="M8,4C8.274,4 8.5,4.226 8.5,4.5L8.5,7.5L11.5,7.5C11.774,7.5 12,7.726 12,8C12,8.274 11.774,8.5 11.5,8.5L8.5,8.5L8.5,11.5C8.5,11.774 8.274,12 8,12C7.726,12 7.5,11.774 7.5,11.5L7.5,8.5L4.5,8.5C4.226,8.5 4,8.274 4,8C4,7.726 4.226,7.5 4.5,7.5L7.5,7.5L7.5,4.5C7.5,4.226 7.726,4 8,4" style="fill:white;fill-rule:nonzero;stroke:white;stroke-width:2.25px;stroke-linecap:butt;stroke-miterlimit:2;"/>
                </g>
                <g transform="matrix(12.0357,0,0,12.0357,906.296,1623.01)">
                    <path d="M8,4C8.274,4 8.5,4.226 8.5,4.5L8.5,7.5L11.5,7.5C11.774,7.5 12,7.726 12,8C12,8.274 11.774,8.5 11.5,8.5L8.5,8.5L8.5,11.5C8.5,11.774 8.274,12 8,12C7.726,12 7.5,11.774 7.5,11.5L7.5,8.5L4.5,8.5C4.226,8.5 4,8.274 4,8C4,7.726 4.226,7.5 4.5,7.5L7.5,7.5L7.5,4.5C7.5,4.226 7.726,4 8,4" style="fill:white;fill-rule:nonzero;stroke:white;stroke-width:2.25px;stroke-linecap:butt;stroke-miterlimit:2;"/>
                </g>
            </g>
        </g>
        <g>
            <g transform="matrix(1,0,0,1,-0.70515,0)">
                <g transform="matrix(0.989595,0,0,1.00717,14.9228,-12.4309)">
                    <path d="M1503.56,1869.68L1649.92,1869.68C1696.07,1869.68 1733.53,1906.49 1733.53,1951.83L1733.53,2006.57L1648.67,2006.57L1648.67,1965.41C1648.67,1953.99 1639.25,1944.73 1627.62,1944.73L1519.01,1944.73C1507.38,1944.73 1497.96,1953.99 1497.96,1965.41L1497.96,2006.57L1202.12,2006.57L1202.12,1965.41C1202.12,1953.99 1192.7,1944.73 1181.07,1944.73L1072.46,1944.73C1060.84,1944.73 1051.41,1953.99 1051.41,1965.41L1051.41,2006.57L973.437,2006.57L973.437,1951.83C973.437,1906.49 1010.9,1869.68 1057.04,1869.68L1202.1,1869.68L1202.1,1822.94C1202.1,1792.72 1227.08,1768.18 1257.84,1768.18L1447.82,1768.18C1478.59,1768.18 1503.56,1792.72 1503.56,1822.94L1503.56,1869.68ZM1461.46,1869.68L1461.46,1822.94C1461.46,1815.55 1455.35,1809.55 1447.82,1809.55L1257.84,1809.55C1250.32,1809.55 1244.21,1815.55 1244.21,1822.94L1244.21,1869.68L1461.46,1869.68ZM1733.53,2047.94L1733.53,2302.82C1733.53,2348.15 1696.07,2384.96 1649.92,2384.96L1057.04,2384.96C1010.9,2384.96 973.437,2348.15 973.437,2302.82L973.437,2047.94L1051.41,2047.94L1051.41,2073.26C1051.41,2091.9 1058.94,2109.77 1072.36,2122.95C1085.77,2136.13 1103.97,2143.54 1122.94,2143.54L1122.94,2143.54C1143.94,2143.54 1164.08,2135.34 1178.93,2120.75C1193.78,2106.16 1202.12,2086.37 1202.12,2065.74L1202.12,2047.94L1497.96,2047.94L1497.96,2073.26C1497.96,2091.9 1505.49,2109.77 1518.91,2122.95C1532.32,2136.13 1550.51,2143.54 1569.48,2143.54L1569.49,2143.54C1590.49,2143.54 1610.63,2135.34 1625.48,2120.75C1640.33,2106.16 1648.67,2086.37 1648.67,2065.74L1648.67,2047.94L1733.53,2047.94ZM1247.6,2099.54L1231.9,2114.96L1266.43,2162.48C1269.38,2166.53 1274.15,2168.94 1279.23,2168.94L1280.33,2168.94C1284.49,2168.94 1288.49,2170.56 1291.44,2173.46L1333.42,2214.71L1292.35,2255.64C1288.03,2254.39 1283.54,2253.75 1279.04,2253.75C1253.2,2253.75 1231.93,2274.63 1231.9,2300.02C1231.94,2325.38 1253.18,2346.22 1278.99,2346.22C1304.82,2346.22 1326.08,2325.34 1326.08,2299.96C1326.08,2295.54 1325.43,2291.14 1324.16,2286.9L1365.82,2246.54L1381.01,2261.47L1376.22,2275.56C1374.35,2281.1 1375.82,2287.22 1380.02,2291.34L1431.35,2341.77C1434.28,2344.67 1438.28,2346.3 1442.44,2346.3C1446.61,2346.3 1450.6,2344.67 1453.54,2341.77L1478.43,2317.31C1481.38,2314.42 1483.05,2310.5 1483.05,2306.41C1483.05,2302.31 1481.38,2298.39 1478.43,2295.5L1427.11,2245.07C1422.91,2240.95 1416.68,2239.5 1411.05,2241.34L1396.7,2246.05L1381.64,2231.24L1423.7,2190.48C1427.67,2191.52 1431.76,2192.05 1435.87,2192.05C1461.7,2192.05 1482.98,2171.19 1483.03,2145.81C1483.03,2141.64 1482.5,2137.65 1481.43,2133.82L1447.84,2166.84L1420.25,2161.23L1414.54,2134.13L1448.14,2101.12C1444.15,2100.06 1440.04,2099.53 1435.91,2099.53C1410.08,2099.53 1388.83,2120.41 1388.83,2145.79C1388.83,2149.87 1389.38,2153.93 1390.46,2157.87L1349.02,2199.16L1307.13,2158.04C1304.19,2155.15 1302.53,2151.22 1302.53,2147.13L1302.53,2146.04C1302.53,2141.06 1300.08,2136.38 1295.96,2133.49L1247.6,2099.54ZM1278.99,2269.18L1286.38,2272.91L1294.69,2273.31L1299.19,2280.17L1306.17,2284.6L1306.58,2292.76L1310.38,2300.02L1306.58,2307.28L1306.17,2315.44L1299.19,2319.87L1294.69,2326.73L1286.38,2327.13L1278.99,2330.86L1271.6,2327.13L1263.3,2326.73L1258.79,2319.87L1251.81,2315.44L1251.4,2307.28L1247.6,2300.02L1251.4,2292.76L1251.81,2284.6L1258.79,2280.17L1263.3,2273.31L1271.6,2272.91L1278.99,2269.18ZM1399,2263.72C1400.47,2262.27 1402.47,2261.45 1404.55,2261.45C1406.64,2261.45 1408.64,2262.27 1410.11,2263.72L1455.85,2308.67C1457.26,2310.11 1458.05,2312.03 1458.05,2314.03C1458.05,2318.26 1454.51,2321.74 1450.2,2321.74C1448.17,2321.74 1446.21,2320.96 1444.75,2319.58L1399,2274.64C1397.52,2273.19 1396.69,2271.23 1396.69,2269.18C1396.69,2267.13 1397.52,2265.16 1399,2263.72ZM1606.57,1986.1L1606.57,2065.74C1606.57,2075.4 1602.66,2084.66 1595.71,2091.5C1588.75,2098.33 1579.32,2102.17 1569.49,2102.17L1569.48,2102.17C1561.68,2102.17 1554.2,2099.12 1548.68,2093.7C1543.16,2088.28 1540.06,2080.93 1540.06,2073.26L1540.06,1986.1C1540.06,1986.1 1606.57,1986.1 1606.57,1986.1ZM1160.02,1986.1L1160.02,2065.74C1160.02,2075.4 1156.11,2084.66 1149.16,2091.5C1142.2,2098.33 1132.77,2102.17 1122.94,2102.17L1122.94,2102.17C1115.13,2102.17 1107.65,2099.12 1102.13,2093.7C1096.61,2088.28 1093.51,2080.93 1093.51,2073.26L1093.51,1986.1C1093.51,1986.1 1160.02,1986.1 1160.02,1986.1Z" style="fill:white;"/>
                </g>
                <g transform="matrix(1,0,0,1,7.52495,96.8005)">
                    <path d="M669.889,2234.56C674.003,2242.4 681.306,2248.59 692.372,2250.12C725.713,2254.72 751.302,2228.63 752.375,2191.11C753.014,2168.74 753.043,2130.34 752.725,2086.06C728.004,2087.24 701.825,2084.38 676.363,2076.63C660.071,2071.66 639.198,2055.49 622.295,2030.42C586.597,1977.48 566.117,1885.31 641.224,1802.2C672.717,1767.36 702.934,1737.75 729.171,1711.32C722.078,1687.22 713.104,1660.57 702.454,1632.64C694.53,1611.86 688.025,1565.58 700.026,1529.45C709.369,1501.33 728.764,1478.97 763.279,1473.75C787.885,1470.02 806.695,1474.52 820.896,1483.37C842.09,1496.56 853.879,1520.46 857.119,1548.14C860.216,1574.6 855.569,1604.41 846.779,1627.87C837.896,1651.57 820.451,1675.58 796.756,1701.72C790.347,1708.79 783.464,1716.05 776.178,1723.55C783.974,1753.43 788.6,1778.54 789.782,1796.27C790.044,1800.19 790.504,1816.24 791.048,1839.92C852.802,1853.38 907.489,1918.9 882.307,2008.55C875.159,2033.99 854.244,2055.64 824.279,2069.49C815.218,2073.68 805.309,2077.17 794.784,2079.86C795.158,2127.25 795.159,2168.65 794.484,2192.31C792.613,2257.76 744.763,2299.87 686.614,2291.85C633.818,2284.56 615.989,2232.11 626.682,2194.91C628.6,2188.24 631.404,2182.09 634.976,2176.69C641.084,2160.23 656.934,2148.49 675.504,2148.49C699.353,2148.49 718.716,2167.86 718.716,2191.71C718.716,2215.56 699.353,2234.92 675.504,2234.92C673.601,2234.92 671.727,2234.8 669.889,2234.56ZM752.342,2044.01C751.74,1988.32 750.761,1928.71 749.842,1882.14C745.776,1883.52 741.814,1885.39 738.021,1887.78C724.085,1896.55 716.224,1905.86 712.648,1915.15C705.216,1934.44 716.462,1951.71 716.462,1951.71C722.812,1961.44 720.062,1974.51 710.325,1980.86C700.588,1987.21 687.527,1984.46 681.177,1974.72C681.177,1974.72 664.201,1948.94 668.915,1916.84C671.93,1896.31 683.27,1872.47 715.575,1852.13C726.022,1845.55 737.305,1841.27 748.926,1839.09C748.421,1817.4 747.996,1802.77 747.75,1799.07C747.03,1788.29 744.886,1774.58 741.425,1758.63C720.004,1780.11 696.615,1803.74 672.478,1830.45C614.4,1894.71 629.618,1965.93 657.223,2006.87C667.457,2022.05 678.77,2033.32 688.634,2036.33C709.903,2042.8 731.806,2045.16 752.342,2044.01ZM762.537,1676.72C763.551,1675.62 764.554,1674.52 765.545,1673.43C785.043,1651.92 800.022,1632.59 807.331,1613.08C813.954,1595.41 817.612,1572.97 815.278,1553.04C813.629,1538.95 809.416,1525.84 798.627,1519.12C791.51,1514.69 781.922,1513.53 769.59,1515.4C747.99,1518.67 739.957,1536.9 736.888,1555.67C733.037,1579.22 736.972,1604.93 741.816,1617.63C749.622,1638.11 756.545,1657.95 762.537,1676.72ZM791.967,1883.43C792.839,1927.85 793.756,1983.38 794.357,2036.13C798.616,2034.68 802.707,2033.06 806.602,2031.26C824.04,2023.19 837.591,2011.96 841.75,1997.15C857.544,1940.93 829.001,1897.06 791.967,1883.43Z" style="fill:white;"/>
                </g>
                <g transform="matrix(27.4823,0,0,27.4823,1757.82,1911.73)">
                    <g transform="matrix(1,0,0,1,0,1.45548)">
                        <path d="M9,4C9,4.549 8.549,5 8,5C7.451,5 7,4.549 7,4C7,3.451 7.451,3 8,3C8.549,3 9,3.451 9,4M6.5,10.5C6.5,9.677 7.177,9 8,9C8.823,9 9.5,9.677 9.5,10.5C9.5,11.323 8.823,12 8,12C7.177,12 6.5,11.323 6.5,10.5" style="fill:white;fill-rule:nonzero;stroke:white;stroke-width:0.14px;stroke-linecap:butt;stroke-miterlimit:2;"/>
                    </g>
                    <g transform="matrix(1,0,0,1,0,1.38916)">
                        <path d="M4,0C2.903,0 2,0.903 2,2L2,14C2,15.097 2.903,16 4,16L12,16C13.097,16 14,15.097 14,14L14,2C14,0.903 13.097,0 12,0L4,0ZM10,4C10,5.097 9.097,6 8,6C6.903,6 6,5.097 6,4C6,2.903 6.903,2 8,2C9.097,2 10,2.903 10,4M8,7C9.92,7 11.5,8.58 11.5,10.5C11.5,12.42 9.92,14 8,14C6.08,14 4.5,12.42 4.5,10.5C4.5,8.58 6.08,7 8,7" style="fill:white;fill-rule:nonzero;stroke:white;stroke-width:0.14px;stroke-linecap:butt;stroke-miterlimit:2;"/>
                    </g>
                </g>
            </g>
            <g transform="matrix(1,0,0,1,-15.8281,25.6472)">
                <g transform="matrix(4.16667,0,0,4.16667,785.912,1026.03)">
                    <g transform="matrix(5.93094,0,0,6.63707,-51.4771,-44.3913)">
                        <path d="M6,13C6,14.105 4.88,15 3.5,15C2.12,15 1,14.105 1,13C1,11.895 2.12,11 3.5,11C4.88,11 6,11.896 6,13M15,11C15,12.105 13.88,13 12.5,13C11.12,13 10,12.105 10,11C10,9.895 11.12,9 12.5,9C13.88,9 15,9.895 15,11" style="fill:white;fill-rule:nonzero;stroke:white;stroke-width:0.14px;stroke-linecap:butt;stroke-miterlimit:2;"/>
                    </g>
                    <g transform="matrix(5.89097,0,0,5.53488,-53.6767,-30.8089)">
                        <path d="M14,11L14,2L15,2L15,11L14,11ZM6,3L6,13L5,13L5,3L6,3Z" style="fill:white;stroke:white;stroke-width:1.14px;stroke-linecap:butt;stroke-miterlimit:2;"/>
                    </g>
                    <g transform="matrix(6.33863,0,0,5.77906,-58.1533,-31.5446)">
                        <path d="M5,2.905C5,2.394 5.392,1.961 5.9,1.91L13.9,1.11C13.933,1.107 13.967,1.105 14,1.105C14.549,1.105 15,1.556 15,2.105C15,2.105 15,3 15,3L5,4L5,2.905Z" style="fill:white;fill-rule:nonzero;stroke:white;stroke-width:0.15px;stroke-linecap:butt;stroke-miterlimit:2;"/>
                    </g>
                </g>
                <g transform="matrix(4.16667,0,0,4.16667,1371.11,848.83)">
                    <g transform="matrix(5.93094,0,0,6.63707,-51.4771,-44.3913)">
                        <path d="M6,13C6,14.105 4.88,15 3.5,15C2.12,15 1,14.105 1,13C1,11.895 2.12,11 3.5,11C4.88,11 6,11.896 6,13M15,11C15,12.105 13.88,13 12.5,13C11.12,13 10,12.105 10,11C10,9.895 11.12,9 12.5,9C13.88,9 15,9.895 15,11" style="fill:white;fill-rule:nonzero;stroke:white;stroke-width:0.14px;stroke-linecap:butt;stroke-miterlimit:2;"/>
                    </g>
                    <g transform="matrix(5.89097,0,0,5.53488,-53.6767,-30.8089)">
                        <path d="M14,11L14,2L15,2L15,11L14,11ZM6,3L6,13L5,13L5,3L6,3Z" style="fill:white;stroke:white;stroke-width:1.14px;stroke-linecap:butt;stroke-miterlimit:2;"/>
                    </g>
                    <g transform="matrix(6.33863,0,0,5.77906,-58.1533,-31.5446)">
                        <path d="M5,2.905C5,2.394 5.392,1.961 5.9,1.91L13.9,1.11C13.933,1.107 13.967,1.105 14,1.105C14.549,1.105 15,1.556 15,2.105C15,2.105 15,3 15,3L5,4L5,2.905Z" style="fill:white;fill-rule:nonzero;stroke:white;stroke-width:0.15px;stroke-linecap:butt;stroke-miterlimit:2;"/>
                    </g>
                </g>
                <g transform="matrix(4.16667,0,0,4.16667,1986.56,914.114)">
                    <g transform="matrix(5.93094,0,0,6.63707,-51.4771,-44.3913)">
                        <path d="M6,13C6,14.105 4.88,15 3.5,15C2.12,15 1,14.105 1,13C1,11.895 2.12,11 3.5,11C4.88,11 6,11.896 6,13M15,11C15,12.105 13.88,13 12.5,13C11.12,13 10,12.105 10,11C10,9.895 11.12,9 12.5,9C13.88,9 15,9.895 15,11" style="fill:white;fill-rule:nonzero;stroke:white;stroke-width:0.14px;stroke-linecap:butt;stroke-miterlimit:2;"/>
                    </g>
                    <g transform="matrix(5.89097,0,0,5.53488,-53.6767,-30.8089)">
                        <path d="M14,11L14,2L15,2L15,11L14,11ZM6,3L6,13L5,13L5,3L6,3Z" style="fill:white;stroke:white;stroke-width:1.14px;stroke-linecap:butt;stroke-miterlimit:2;"/>
                    </g>
                    <g transform="matrix(6.33863,0,0,5.77906,-58.1533,-31.5446)">
                        <path d="M5,2.905C5,2.394 5.392,1.961 5.9,1.91L13.9,1.11C13.933,1.107 13.967,1.105 14,1.105C14.549,1.105 15,1.556 15,2.105C15,2.105 15,3 15,3L5,4L5,2.905Z" style="fill:white;fill-rule:nonzero;stroke:white;stroke-width:0.15px;stroke-linecap:butt;stroke-miterlimit:2;"/>
                    </g>
                </g>
            </g>
        </g>
        <g transform="matrix(2.03291,0,0,0.849242,61.9828,411.784)">
            <g>
                <path d="M263.191,2547.49L263.191,2395.56L278.525,2395.56L278.525,2458.95L314.759,2395.56L336.771,2395.56L293.488,2467.14L342.088,2547.49L317.665,2547.49L278.525,2480.66L278.525,2547.49L263.191,2547.49Z" style="fill:white;fill-rule:nonzero;"/>
                <rect x="363.73" y="2395.56" width="15.211" height="151.933" style="fill:white;fill-rule:nonzero;"/>
                <path d="M491.784,2422.73L491.784,2547.49L476.573,2547.49L476.573,2422.73L446.585,2422.73L446.585,2395.56L521.896,2395.56L521.896,2422.73L491.784,2422.73Z" style="fill:white;fill-rule:nonzero;"/>
                <path d="M542.981,2523.63L586.139,2523.63L586.139,2445.87L542.981,2445.87L542.981,2523.63ZM529.934,2452.34C529.934,2441.03 530.882,2433.32 532.778,2429.2C534.675,2425.08 538.364,2423.01 543.846,2423.01L585.274,2423.01C590.797,2423.01 594.487,2425.08 596.342,2429.2C598.238,2433.32 599.186,2441.03 599.186,2452.34L599.186,2518.03C599.186,2529.43 598.217,2537.19 596.28,2541.31C594.384,2545.43 590.715,2547.49 585.274,2547.49L543.846,2547.49C538.364,2547.49 534.675,2545.43 532.778,2541.31C530.882,2537.19 529.934,2529.43 529.934,2518.03L529.934,2452.34Z" style="fill:white;fill-rule:nonzero;"/>
                <path d="M633.503,2523.63L676.662,2523.63L676.662,2445.87L633.503,2445.87L633.503,2523.63ZM620.456,2452.34C620.456,2441.03 621.404,2433.32 623.301,2429.2C625.197,2425.08 628.886,2423.01 634.368,2423.01L675.796,2423.01C681.32,2423.01 685.009,2425.08 686.864,2429.2C688.76,2433.32 689.708,2441.03 689.708,2452.34L689.708,2518.03C689.708,2529.43 688.739,2537.19 686.802,2541.31C684.906,2545.43 681.237,2547.49 675.796,2547.49L634.368,2547.49C628.886,2547.49 625.197,2545.43 623.301,2541.31C621.404,2537.19 620.456,2529.43 620.456,2518.03L620.456,2452.34Z" style="fill:white;fill-rule:nonzero;"/>
                <path d="M712.277,2547.49L712.277,2423.01L725.447,2423.01L725.447,2524.21L767.431,2524.21L767.431,2547.49L712.277,2547.49Z" style="fill:white;fill-rule:nonzero;"/>
                <path d="M782.147,2547.49L782.147,2423.01L830.252,2423.01C834.745,2423.01 837.981,2424.93 839.96,2428.76C841.939,2432.5 842.928,2438.64 842.928,2447.16L842.928,2462.11C842.928,2467.77 842.145,2472.41 840.578,2476.06C839.012,2479.7 836.745,2482.14 833.777,2483.39C836.786,2484.54 839.115,2487.22 840.764,2491.44C842.454,2495.56 843.299,2500.78 843.299,2507.1L843.299,2523.06C843.299,2531.2 841.918,2537.34 839.156,2541.46C836.394,2545.48 832.231,2547.49 826.666,2547.49L782.147,2547.49ZM824.255,2443.28L795.008,2443.28L795.008,2472.75L824.255,2472.75C826.522,2472.75 828.068,2472.08 828.892,2470.74C829.716,2469.4 830.129,2467.1 830.129,2463.84L830.129,2452.05C830.129,2448.79 829.716,2446.54 828.892,2445.3C828.109,2443.95 826.563,2443.28 824.255,2443.28ZM824.255,2493.3L795.008,2493.3L795.008,2525.07L824.255,2525.07C826.728,2525.07 828.397,2524.26 829.263,2522.63C830.17,2521 830.623,2518.12 830.623,2514L830.623,2504.52C830.623,2500.4 830.17,2497.52 829.263,2495.89C828.397,2494.17 826.728,2493.3 824.255,2493.3Z" style="fill:white;fill-rule:nonzero;"/>
                <path d="M877.121,2523.63L920.28,2523.63L920.28,2445.87L877.121,2445.87L877.121,2523.63ZM864.074,2452.34C864.074,2441.03 865.023,2433.32 866.919,2429.2C868.815,2425.08 872.504,2423.01 877.987,2423.01L919.414,2423.01C924.938,2423.01 928.627,2425.08 930.482,2429.2C932.378,2433.32 933.326,2441.03 933.326,2452.34L933.326,2518.03C933.326,2529.43 932.358,2537.19 930.42,2541.31C928.524,2545.43 924.855,2547.49 919.414,2547.49L877.987,2547.49C872.504,2547.49 868.815,2545.43 866.919,2541.31C865.023,2537.19 864.074,2529.43 864.074,2518.03L864.074,2452.34Z" style="fill:white;fill-rule:nonzero;"/>
                <path d="M950.392,2547.49L976.856,2483.67L949.897,2423.01L967.396,2423.01L985.389,2463.26L1002.33,2423.01L1017.42,2423.01L992.994,2480.08L1023.11,2547.49L1005.24,2547.49L984.709,2500.92L965.85,2547.49L950.392,2547.49Z" style="fill:white;fill-rule:nonzero;"/>
            </g>
        </g>
    </g>
</svg>
